
<svg width="58" height="66" viewBox="0 0 58 66" fill="none" xmlns="http://www.w3.org/2000/svg">
<g id="Frame 24" opacity="0.2" clip-path="url(#clip0_11216_413386)">
<g id="Group 6">
<rect id="Rectangle 25" x="2.5" y="11.8601" width="70" height="63.64" rx="4.5" stroke="white" stroke-width="5" stroke-linejoin="round"/>
<rect id="Rectangle 26" x="15" y="33.7" width="16.875" height="16.84" rx="4.5" stroke="white" stroke-width="5" stroke-linejoin="round"/>
<g id="Rectangle 28">
<mask id="path-3-inside-1_11216_413386" fill="white">
<path d="M12.5 2.34375C12.5 1.04933 13.5493 0 14.8438 0C16.1382 0 17.1875 1.04933 17.1875 2.34375V10.1363C17.1875 11.4307 16.1382 12.48 14.8438 12.48C13.5493 12.48 12.5 11.4307 12.5 10.1363V2.34375Z"/>
</mask>
<path d="M12.1875 2.34375V10.1363H22.1875V2.34375H12.1875ZM17.5 10.1363V2.34375H7.5V10.1363H17.5ZM14.8438 7.48C16.3108 7.48 17.5 8.66924 17.5 10.1363H7.5C7.5 14.1921 10.7879 17.48 14.8438 17.48V7.48ZM12.1875 10.1363C12.1875 8.66924 13.3767 7.48 14.8438 7.48V17.48C18.8996 17.48 22.1875 14.1921 22.1875 10.1363H12.1875ZM14.8438 5C13.3767 5 12.1875 3.81076 12.1875 2.34375H22.1875C22.1875 -1.71209 18.8996 -5 14.8438 -5V5ZM14.8438 -5C10.7879 -5 7.5 -1.7121 7.5 2.34375H17.5C17.5 3.81076 16.3108 5 14.8438 5V-5Z" fill="white" mask="url(#path-3-inside-1_11216_413386)"/>
</g>
<g id="Rectangle 29">
<mask id="path-5-inside-2_11216_413386" fill="white">
<path d="M54.6875 2.34375C54.6875 1.04933 55.7368 0 57.0312 0C58.3257 0 59.375 1.04933 59.375 2.34375V10.1363C59.375 11.4307 58.3257 12.48 57.0312 12.48C55.7368 12.48 54.6875 11.4307 54.6875 10.1363V2.34375Z"/>
</mask>
<path d="M54.375 2.34375V10.1363H64.375V2.34375H54.375ZM59.6875 10.1363V2.34375H49.6875V10.1363H59.6875ZM57.0312 7.48C58.4983 7.48 59.6875 8.66924 59.6875 10.1363H49.6875C49.6875 14.1921 52.9754 17.48 57.0312 17.48V7.48ZM54.375 10.1363C54.375 8.66924 55.5642 7.48 57.0312 7.48V17.48C61.0871 17.48 64.375 14.1921 64.375 10.1363H54.375ZM57.0312 5C55.5642 5 54.375 3.81076 54.375 2.34375H64.375C64.375 -1.71209 61.0871 -5 57.0312 -5V5ZM57.0312 -5C52.9754 -5 49.6875 -1.7121 49.6875 2.34375H59.6875C59.6875 3.81076 58.4983 5 57.0312 5V-5Z" fill="white" mask="url(#path-5-inside-2_11216_413386)"/>
</g>
<g id="Rectangle 27">
<mask id="path-7-inside-3_11216_413386" fill="white">
<path d="M0 21.06C0 19.7676 1.04765 18.72 2.34 18.72H72.66C73.9524 18.72 75 19.7676 75 21.06C75 22.3523 73.9523 23.4 72.66 23.4H2.33999C1.04765 23.4 0 22.3523 0 21.06Z"/>
</mask>
<path d="M2.34 23.72H72.66V13.72H2.34V23.72ZM72.66 18.4H2.33999V28.4H72.66V18.4ZM2.33999 18.4C3.80909 18.4 5 19.5909 5 21.06H-5C-5 25.1137 -1.71379 28.4 2.33999 28.4V18.4ZM70 21.06C70 19.5909 71.1909 18.4 72.66 18.4V28.4C76.7138 28.4 80 25.1137 80 21.06H70ZM72.66 23.72C71.1909 23.72 70 22.529 70 21.06H80C80 17.0062 76.7138 13.72 72.66 13.72V23.72ZM2.34 13.72C-1.71377 13.72 -5 17.0062 -5 21.06H5C5 22.529 3.80908 23.72 2.34 23.72V13.72Z" fill="white" mask="url(#path-7-inside-3_11216_413386)"/>
</g>
</g>
</g>
<defs>
<clipPath id="clip0_11216_413386">
<rect width="58" height="66" fill="white"/>
</clipPath>
</defs>
</svg>
