
<svg width="46" height="47" viewBox="0 0 46 47" fill="none" xmlns="http://www.w3.org/2000/svg">
<g id="Frame 16">
<g clip-path="url(#clip0_11216_413350)">
<rect id="Rectangle 52" opacity="0.2" x="-6" y="-5" width="52.0755" height="52.2222" rx="26.0377" fill="white"/>
<g id="Group 6">
<g id="Rectangle 25">
<mask id="path-3-inside-1_11216_413350" fill="white">
<rect x="8" y="11" width="24" height="22" rx="1"/>
</mask>
<rect x="8" y="11" width="24" height="22" rx="1" stroke="white" stroke-width="3" mask="url(#path-3-inside-1_11216_413350)"/>
</g>
<g id="Rectangle 26">
<mask id="path-4-inside-2_11216_413350" fill="white">
<rect x="12" y="18" width="7" height="7" rx="1"/>
</mask>
<rect x="12" y="18" width="7" height="7" rx="1" stroke="white" stroke-width="3" mask="url(#path-4-inside-2_11216_413350)"/>
</g>
<g id="Rectangle 28">
<mask id="path-5-inside-3_11216_413350" fill="white">
<path d="M12 8.75C12 8.33579 12.3358 8 12.75 8C13.1642 8 13.5 8.33579 13.5 8.75V11.25C13.5 11.6642 13.1642 12 12.75 12C12.3358 12 12 11.6642 12 11.25V8.75Z"/>
</mask>
<path d="M12 8.75V11.25H15V8.75H12ZM13.5 11.25V8.75H10.5V11.25H13.5ZM12.75 10.5C13.1642 10.5 13.5 10.8358 13.5 11.25H10.5C10.5 12.4926 11.5074 13.5 12.75 13.5V10.5ZM12 11.25C12 10.8358 12.3358 10.5 12.75 10.5V13.5C13.9926 13.5 15 12.4926 15 11.25H12ZM12.75 9.5C12.3358 9.5 12 9.16421 12 8.75H15C15 7.50736 13.9926 6.5 12.75 6.5V9.5ZM12.75 6.5C11.5074 6.5 10.5 7.50736 10.5 8.75H13.5C13.5 9.16421 13.1642 9.5 12.75 9.5V6.5Z" fill="white" mask="url(#path-5-inside-3_11216_413350)"/>
</g>
<g id="Rectangle 29">
<mask id="path-7-inside-4_11216_413350" fill="white">
<path d="M25.5 8.75C25.5 8.33579 25.8358 8 26.25 8C26.6642 8 27 8.33579 27 8.75V11.25C27 11.6642 26.6642 12 26.25 12C25.8358 12 25.5 11.6642 25.5 11.25V8.75Z"/>
</mask>
<path d="M25.5 8.75V11.25H28.5V8.75H25.5ZM27 11.25V8.75H24V11.25H27ZM26.25 10.5C26.6642 10.5 27 10.8358 27 11.25H24C24 12.4926 25.0074 13.5 26.25 13.5V10.5ZM25.5 11.25C25.5 10.8358 25.8358 10.5 26.25 10.5V13.5C27.4926 13.5 28.5 12.4926 28.5 11.25H25.5ZM26.25 9.5C25.8358 9.5 25.5 9.16421 25.5 8.75H28.5C28.5 7.50736 27.4926 6.5 26.25 6.5V9.5ZM26.25 6.5C25.0074 6.5 24 7.50736 24 8.75H27C27 9.16421 26.6642 9.5 26.25 9.5V6.5Z" fill="white" mask="url(#path-7-inside-4_11216_413350)"/>
</g>
<g id="Rectangle 27">
<mask id="path-9-inside-5_11216_413350" fill="white">
<path d="M8 14.75C8 14.3358 8.33579 14 8.75 14H31.25C31.6642 14 32 14.3358 32 14.75C32 15.1642 31.6642 15.5 31.25 15.5H8.75C8.33579 15.5 8 15.1642 8 14.75Z"/>
</mask>
<path d="M8.75 15.5H31.25V12.5H8.75V15.5ZM31.25 14H8.75V17H31.25V14ZM8.75 14C9.16421 14 9.5 14.3358 9.5 14.75H6.5C6.5 15.9926 7.50736 17 8.75 17V14ZM30.5 14.75C30.5 14.3358 30.8358 14 31.25 14V17C32.4926 17 33.5 15.9926 33.5 14.75H30.5ZM31.25 15.5C30.8358 15.5 30.5 15.1642 30.5 14.75H33.5C33.5 13.5074 32.4926 12.5 31.25 12.5V15.5ZM8.75 12.5C7.50736 12.5 6.5 13.5074 6.5 14.75H9.5C9.5 15.1642 9.16421 15.5 8.75 15.5V12.5Z" fill="white" mask="url(#path-9-inside-5_11216_413350)"/>
</g>
</g>
</g>
</g>
<defs>
<clipPath id="clip0_11216_413350">
<path d="M0 15C0 6.71573 6.71573 0 15 0H46V47H0V15Z" fill="white"/>
</clipPath>
</defs>
</svg>
