
<svg width="86" height="80" viewBox="0 0 86 80" fill="none" xmlns="http://www.w3.org/2000/svg">
<g id="Frame 25" clip-path="url(#clip0_11216_413390)">
<g id="Group" opacity="0.2">
<path id="Vector" d="M64.9506 21.4433C67.9382 19.7184 71.4887 19.251 74.8209 20.1439C78.1531 21.0367 80.9942 23.2168 82.7191 26.2044C84.444 29.192 84.9114 32.7424 84.0185 36.0747C83.1257 39.4069 80.9456 42.248 77.958 43.9729M34.9112 38.7866L58.7582 80.0907C59.3332 81.0866 59.489 82.2701 59.1913 83.3808C58.8937 84.4915 58.167 85.4386 57.1712 86.0135L53.4163 88.1814C52.4204 88.7564 51.2369 88.9122 50.1262 88.6146C49.0154 88.317 48.0684 87.5903 47.4934 86.5944L36.6539 67.8198" stroke="white" stroke-width="5.08986" stroke-linecap="round" stroke-linejoin="round"/>
<path id="Vector_2" d="M42.4192 34.4509L51.2335 10.4872C51.4897 9.7911 51.939 9.18244 52.5288 8.73256C53.1186 8.28268 53.8244 8.01021 54.5635 7.94709C55.3025 7.88397 56.0443 8.03282 56.7018 8.37618C57.3593 8.71955 57.9054 9.24321 58.2759 9.88579L84.629 55.5306C85.0002 56.1728 85.1807 56.9075 85.1493 57.6486C85.1179 58.3897 84.8759 59.1065 84.4517 59.7151C84.0275 60.3236 83.4387 60.7986 82.7542 61.0844C82.0697 61.3702 81.3179 61.455 80.5869 61.3288L55.4266 56.9804L25.3873 74.3236C24.3914 74.8986 23.2079 75.0544 22.0972 74.7568C20.9864 74.4592 20.0394 73.7325 19.4645 72.7366L10.7928 57.7169C10.2179 56.7211 10.0621 55.5376 10.3597 54.4268C10.6573 53.3161 11.384 52.3691 12.3799 51.7941L42.4192 34.4509Z" stroke="white" stroke-width="5.08986" stroke-linecap="round" stroke-linejoin="round"/>
</g>
</g>
<defs>
<clipPath id="clip0_11216_413390">
<rect width="86" height="80" fill="white"/>
</clipPath>
</defs>
</svg>
