
<svg width="77" height="66" viewBox="0 0 77 66" fill="none" xmlns="http://www.w3.org/2000/svg">
<g id="Frame 30" clip-path="url(#clip0_11216_413425)">
<path id="+" opacity="0.2" d="M19.5714 52.7375H36.5288V71.4286C36.5288 76.478 40.6222 80.5714 45.6716 80.5714H48.3925C53.442 80.5714 57.5354 76.478 57.5354 71.4286V52.7375H74.4286C79.478 52.7375 83.5714 48.6441 83.5714 43.5946V42.2318C83.5714 37.1823 79.478 33.0889 74.4286 33.0889H57.5354V16.5714C57.5354 11.522 53.442 7.42857 48.3925 7.42857H45.6716C40.6222 7.42857 36.5288 11.522 36.5288 16.5714V33.0889H19.5714C14.522 33.0889 10.4286 37.1824 10.4286 42.2318V43.5946C10.4286 48.6441 14.522 52.7375 19.5714 52.7375Z" stroke="white" stroke-width="9.14286"/>
</g>
<defs>
<clipPath id="clip0_11216_413425">
<rect width="77" height="66" fill="white"/>
</clipPath>
</defs>
</svg>
