
<svg width="46" height="47" viewBox="0 0 46 47" fill="none" xmlns="http://www.w3.org/2000/svg">
<g id="Frame 17">
<g clip-path="url(#clip0_11216_413351)">
<rect id="Rectangle 52" opacity="0.2" x="-6" y="-5" width="52.0755" height="52.2222" rx="26.0377" fill="white"/>
<g id="Group">
<path id="Vector" d="M24.1412 12.8191C25.0217 12.3108 26.068 12.1731 27.05 12.4362C28.032 12.6993 28.8693 13.3418 29.3776 14.2222C29.886 15.1027 30.0237 16.149 29.7606 17.131C29.4975 18.1131 28.855 18.9503 27.9746 19.4587M15.2885 17.9303L22.3163 30.1027C22.4857 30.3962 22.5317 30.745 22.4439 31.0723C22.3562 31.3997 22.1421 31.6788 21.8486 31.8482L20.742 32.4871C20.4485 32.6565 20.0997 32.7025 19.7724 32.6147C19.4451 32.527 19.166 32.3129 18.9965 32.0194L15.8021 26.4865" stroke="white" stroke-width="1.5" stroke-linecap="round" stroke-linejoin="round"/>
<path id="Vector_2" d="M17.5011 16.6525L20.0987 9.59035C20.1742 9.3852 20.3066 9.20583 20.4804 9.07325C20.6542 8.94066 20.8622 8.86037 21.08 8.84177C21.2978 8.82317 21.5164 8.86703 21.7102 8.96822C21.904 9.06941 22.0649 9.22374 22.1741 9.41311L29.9404 22.8648C30.0498 23.0541 30.103 23.2706 30.0938 23.489C30.0845 23.7074 30.0132 23.9186 29.8882 24.098C29.7632 24.2773 29.5897 24.4173 29.3879 24.5015C29.1862 24.5857 28.9647 24.6107 28.7492 24.5736L21.3344 23.292L12.4817 28.4032C12.1882 28.5726 11.8395 28.6185 11.5121 28.5308C11.1848 28.4431 10.9057 28.2289 10.7362 27.9355L8.18068 23.5091C8.01124 23.2156 7.96532 22.8668 8.05303 22.5395C8.14074 22.2122 8.3549 21.9331 8.64838 21.7636L17.5011 16.6525Z" stroke="white" stroke-width="1.5" stroke-linecap="round" stroke-linejoin="round"/>
</g>
</g>
</g>
<defs>
<clipPath id="clip0_11216_413351">
<path d="M0 15C0 6.71573 6.71573 0 15 0H46V47H0V15Z" fill="white"/>
</clipPath>
</defs>
</svg>
