
<svg width="46" height="47" viewBox="0 0 46 47" fill="none" xmlns="http://www.w3.org/2000/svg">
<g id="Frame 20">
<g clip-path="url(#clip0_11216_413357)">
<rect id="Rectangle 52" opacity="0.2" x="-6.07617" y="-5.22217" width="52.0755" height="52.2222" rx="26.0377" fill="white"/>
<path id="+" d="M30.3571 21.9751C30.3571 20.476 29.1419 19.2608 27.6429 19.2608H22.6277V14.3571C22.6277 12.8581 21.4125 11.6429 19.9134 11.6429H19.1056C17.6066 11.6429 16.3914 12.8581 16.3914 14.3571V19.2608H11.3571C9.85808 19.2608 8.64286 20.476 8.64286 21.9751V22.3797C8.64286 23.8787 9.85809 25.0939 11.3571 25.0939H16.3914V30.6429C16.3914 32.1419 17.6066 33.3571 19.1056 33.3571H19.9134C21.4125 33.3571 22.6277 32.1419 22.6277 30.6429V25.0939H27.6429C29.1419 25.0939 30.3571 23.8787 30.3571 22.3796V21.9751Z" stroke="white" stroke-width="2.71429"/>
</g>
</g>
<defs>
<clipPath id="clip0_11216_413357">
<path d="M0 15C0 6.71573 6.71573 0 15 0H46V47H0V15Z" fill="white"/>
</clipPath>
</defs>
</svg>
