
<svg width="75" height="73" viewBox="0 0 75 73" fill="none" xmlns="http://www.w3.org/2000/svg">
<g id="Frame 28" clip-path="url(#clip0_11216_413417)">
<path id="Vector" opacity="0.2" fill-rule="evenodd" clip-rule="evenodd" d="M69.6491 2.65615L70.3629 2.89707L75.7257 4.68169C77.7914 5.37322 79.6072 5.97553 81.0394 6.64476C82.592 7.36753 84.0152 8.29553 85.1038 9.80799C86.1925 11.316 86.6252 12.9623 86.8215 14.6621C87 16.2371 87 18.1466 87 20.3283V56.9665C87 60.0806 87 62.7085 86.7591 64.7875C86.5092 66.9469 85.9471 69.0795 84.3721 70.8017C83.4398 71.8224 82.3067 72.6396 81.0438 73.202C78.9112 74.1478 76.7117 74.0051 74.5835 73.5634C72.5312 73.1351 70.0417 72.3052 67.0882 71.3192L66.8963 71.2568C61.8994 69.5881 60.1817 69.0706 58.522 69.1286C57.8591 69.1512 57.2 69.2393 56.5545 69.3918C54.9349 69.7711 53.418 70.7258 49.0323 73.6481L42.8665 77.7617L42.2418 78.1766C37.5037 81.3398 34.2111 83.5349 30.3563 84.0524C26.506 84.57 22.7494 83.3163 17.3509 81.5094L16.6371 81.2729L11.2743 79.4883C9.20861 78.7968 7.39277 78.1944 5.96062 77.5252C4.408 76.8024 2.98477 75.8744 1.89615 74.3575C0.807538 72.8495 0.374769 71.2077 0.178461 69.5034C-1.66205e-07 67.9285 0 66.0234 0 63.8417V27.2035C0 24.0849 -4.48754e-07 21.4571 0.240923 19.3825C0.490769 17.2231 1.05292 15.0905 2.62785 13.3683C3.56017 12.3476 4.69327 11.5304 5.95615 10.968C8.08877 10.0177 10.2928 10.1605 12.4165 10.6066C14.4688 11.0305 16.9583 11.8648 19.9118 12.8508L20.1037 12.9132C25.1006 14.5774 26.8183 15.0994 28.4825 15.0414C29.1439 15.0186 29.8015 14.9304 30.4455 14.7781C32.0651 14.3945 33.582 13.4397 37.9677 10.5218L44.1335 6.4083L44.7582 5.98892C49.4963 2.83015 52.7889 0.635071 56.6392 0.117532C60.494 -0.400006 64.2506 0.849224 69.6491 2.65615ZM60.2308 6.86338V62.5166C62.6222 62.7754 65.1385 63.6141 68.4534 64.7206L69.0111 64.908C72.21 65.9743 74.3292 66.6748 75.9488 67.0138C77.5371 67.344 78.0769 67.1923 78.3223 67.0852C78.7437 66.8984 79.1219 66.6265 79.4332 66.2866C79.6117 66.0903 79.924 65.6218 80.1114 64.0112C80.3032 62.3694 80.3077 60.1341 80.3077 56.7657V20.5023C80.3077 18.0931 80.3032 16.5761 80.1738 15.4251C80.0489 14.3588 79.8526 13.9617 79.6742 13.7208C79.5002 13.4798 79.1878 13.1631 78.2197 12.7125C77.1668 12.2217 75.7212 11.7398 73.4458 10.9769L68.2482 9.24584C64.2908 7.92522 61.944 7.17568 60.2308 6.86338ZM53.5385 63.3197V8.32676C52.1509 9.12984 50.3708 10.2943 47.8455 11.9763L41.6797 16.0898L41.1889 16.4155C38.1194 18.4678 35.8306 19.9937 33.4615 20.8503V75.8432C34.8491 75.0401 36.6292 73.8712 39.1545 72.1892L45.3203 68.0801L45.8111 67.7545C48.8806 65.7021 51.1694 64.1763 53.5385 63.3197ZM26.7692 77.3066V21.6489C24.3778 21.3901 21.8615 20.5514 18.5466 19.4449L17.9889 19.2575C14.79 18.1912 12.6708 17.4908 11.0468 17.1517C9.46292 16.8215 8.92308 16.9688 8.68215 17.0758C8.2588 17.2635 7.87899 17.5369 7.56677 17.8789C7.38831 18.0708 7.076 18.5392 6.88861 20.1498C6.69677 21.7917 6.69231 24.0314 6.69231 27.3998V63.6632C6.69231 66.0725 6.69677 67.5894 6.82615 68.7405C6.95108 69.8068 7.14738 70.1994 7.32585 70.4448C7.49985 70.6857 7.81215 71.0024 8.78031 71.4531C9.83323 71.9438 11.2788 72.4257 13.5542 73.1886L18.7518 74.9197C22.7092 76.2358 25.0515 76.9854 26.7692 77.3021V77.3066Z" fill="white"/>
</g>
<defs>
<clipPath id="clip0_11216_413417">
<rect width="75" height="73" fill="white"/>
</clipPath>
</defs>
</svg>
