<svg width="46" height="47" viewBox="0 0 46 47" fill="none" xmlns="http://www.w3.org/2000/svg">
<g id="Frame 19">
<g clip-path="url(#clip0_11216_413355)">
<rect id="Rectangle 52" opacity="0.2" x="-6.07617" y="-5.22217" width="52.0755" height="52.2222" rx="26.0377" fill="white"/>
<path id="Vector" fill-rule="evenodd" clip-rule="evenodd" d="M25.8118 11.6411L25.9842 11.6993L27.2786 12.1301C27.7772 12.297 28.2155 12.4424 28.5612 12.6039C28.936 12.7784 29.2795 13.0024 29.5423 13.3674C29.8051 13.7314 29.9095 14.1288 29.9569 14.5391C30 14.9193 30 15.3802 30 15.9068V24.7505C30 25.5022 30 26.1365 29.9418 26.6384C29.8815 27.1596 29.7458 27.6744 29.3657 28.0901C29.1406 28.3364 28.8671 28.5337 28.5623 28.6694C28.0475 28.8978 27.5166 28.8633 27.0029 28.7567C26.5075 28.6533 25.9066 28.453 25.1937 28.215L25.1474 28.1999C23.9412 27.7971 23.5266 27.6722 23.126 27.6862C22.966 27.6917 22.8069 27.7129 22.6511 27.7498C22.2602 27.8413 21.894 28.0718 20.8354 28.7771L19.3471 29.7701L19.1963 29.8702C18.0526 30.6338 17.2578 31.1636 16.3274 31.2885C15.398 31.4134 14.4912 31.1108 13.1882 30.6747L13.0158 30.6176L11.7214 30.1868C11.2228 30.0199 10.7845 29.8745 10.4388 29.713C10.064 29.5385 9.72046 29.3145 9.45769 28.9484C9.19492 28.5844 9.09046 28.1881 9.04308 27.7767C9 27.3965 9 26.9367 9 26.4101V17.5664C9 16.8136 9 16.1793 9.05815 15.6785C9.11846 15.1573 9.25415 14.6425 9.63431 14.2268C9.85935 13.9804 10.1329 13.7832 10.4377 13.6474C10.9525 13.4181 11.4845 13.4525 11.9971 13.5602C12.4925 13.6625 13.0934 13.8639 13.8063 14.1019L13.8526 14.117C15.0588 14.5187 15.4734 14.6447 15.8751 14.6307C16.0347 14.6252 16.1935 14.6039 16.3489 14.5671C16.7398 14.4745 17.106 14.2441 18.1646 13.5398L19.6529 12.5468L19.8037 12.4456C20.9474 11.6831 21.7422 11.1533 22.6715 11.0284C23.602 10.9034 24.5088 11.205 25.8118 11.6411ZM23.5385 12.6567V26.0902C24.1157 26.1527 24.7231 26.3551 25.5232 26.6222L25.6578 26.6674C26.43 26.9248 26.9415 27.0939 27.3325 27.1758C27.7158 27.2554 27.8462 27.2188 27.9054 27.193C28.0071 27.1479 28.0984 27.0823 28.1735 27.0002C28.2166 26.9528 28.292 26.8398 28.3372 26.451C28.3835 26.0547 28.3846 25.5151 28.3846 24.7021V15.9488C28.3846 15.3673 28.3835 15.0011 28.3523 14.7233C28.3222 14.4659 28.2748 14.3701 28.2317 14.3119C28.1897 14.2538 28.1143 14.1773 27.8806 14.0685C27.6265 13.9501 27.2775 13.8338 26.7283 13.6496L25.4737 13.2318C24.5185 12.913 23.952 12.7321 23.5385 12.6567ZM21.9231 26.2841V13.0099C21.5882 13.2038 21.1585 13.4848 20.5489 13.8908L19.0606 14.8838L18.9422 14.9624C18.2012 15.4578 17.6488 15.8261 17.0769 16.0328V29.307C17.4118 29.1131 17.8415 28.831 18.4511 28.425L19.9394 27.4331L20.0578 27.3545C20.7988 26.8591 21.3512 26.4908 21.9231 26.2841ZM15.4615 29.6602V16.2256C14.8843 16.1631 14.2769 15.9607 13.4768 15.6936L13.3422 15.6484C12.57 15.391 12.0585 15.2219 11.6665 15.1401C11.2842 15.0604 11.1538 15.0959 11.0957 15.1218C10.9935 15.167 10.9018 15.2331 10.8265 15.3156C10.7834 15.3619 10.708 15.475 10.6628 15.8638C10.6165 16.2601 10.6154 16.8007 10.6154 17.6138V26.367C10.6154 26.9485 10.6165 27.3147 10.6477 27.5925C10.6778 27.8499 10.7252 27.9447 10.7683 28.0039C10.8103 28.0621 10.8857 28.1385 11.1194 28.2473C11.3735 28.3658 11.7225 28.4821 12.2717 28.6662L13.5263 29.0841C14.4815 29.4018 15.0469 29.5827 15.4615 29.6591V29.6602Z" fill="white"/>
</g>
</g>
<defs>
<clipPath id="clip0_11216_413355">
<path d="M0 15C0 6.71573 6.71573 0 15 0H46V47H0V15Z" fill="white"/>
</clipPath>
</defs>
</svg>
