
<svg width="106" height="115" viewBox="0 0 106 115" fill="none" xmlns="http://www.w3.org/2000/svg">
<g id="Frame 31">
<g id="Group 31" opacity="0.2">
<path id="Vector" d="M102.474 26.4446H76.0293V33.0557H102.474V102.472H76.0293V109.083H109.085V33.0557C109.085 31.3023 108.388 29.6208 107.149 28.3809C105.909 27.1411 104.227 26.4446 102.474 26.4446Z" fill="white"/>
<path id="Vector_2" d="M65.7129 9.9165H20.2285C18.3699 9.9165 16.5874 10.6548 15.2732 11.969C13.959 13.2832 13.2207 15.0657 13.2207 16.9243V109.083H72.7207V16.9243C72.7207 15.0657 71.9824 13.2832 70.6682 11.969C69.354 10.6548 67.5715 9.9165 65.7129 9.9165ZM66.1096 102.472H56.1929V92.5554H29.7485V102.472H19.8318V16.9243C19.8318 16.8722 19.8421 16.8206 19.862 16.7725C19.8819 16.7244 19.9112 16.6806 19.948 16.6438C19.9848 16.607 20.0286 16.5777 20.0767 16.5578C20.1248 16.5379 20.1764 16.5276 20.2285 16.5276H65.7129C65.765 16.5276 65.8166 16.5379 65.8647 16.5578C65.9129 16.5777 65.9566 16.607 65.9934 16.6438C66.0302 16.6806 66.0595 16.7244 66.0794 16.7725C66.0993 16.8206 66.1096 16.8722 66.1096 16.9243V102.472Z" fill="white"/>
<path id="Vector_3" d="M26.4434 26.4446H33.0545V33.0557H26.4434V26.4446Z" fill="white"/>
<path id="Vector_4" d="M39.6641 26.4446H46.2752V33.0557H39.6641V26.4446Z" fill="white"/>
<path id="Vector_5" d="M52.8848 26.4446H59.4959V33.0557H52.8848V26.4446Z" fill="white"/>
<path id="Vector_6" d="M26.4434 42.9724H33.0545V49.5835H26.4434V42.9724Z" fill="white"/>
<path id="Vector_7" d="M39.6641 42.9724H46.2752V49.5835H39.6641V42.9724Z" fill="white"/>
<path id="Vector_8" d="M52.8848 42.9724H59.4959V49.5835H52.8848V42.9724Z" fill="white"/>
<path id="Vector_9" d="M26.4434 59.5H33.0545V66.1111H26.4434V59.5Z" fill="white"/>
<path id="Vector_10" d="M39.6641 59.5H46.2752V66.1111H39.6641V59.5Z" fill="white"/>
<path id="Vector_11" d="M52.8848 59.5H59.4959V66.1111H52.8848V59.5Z" fill="white"/>
<path id="Vector_12" d="M26.4434 76.0276H33.0545V82.6387H26.4434V76.0276Z" fill="white"/>
<path id="Vector_13" d="M39.6641 76.0276H46.2752V82.6387H39.6641V76.0276Z" fill="white"/>
<path id="Vector_14" d="M52.8848 76.0276H59.4959V82.6387H52.8848V76.0276Z" fill="white"/>
<path id="Vector_15" d="M76.0293 42.9724H82.6404V49.5835H76.0293V42.9724Z" fill="white"/>
<path id="Vector_16" d="M89.25 42.9724H95.8611V49.5835H89.25V42.9724Z" fill="white"/>
<path id="Vector_17" d="M76.0293 59.5H82.6404V66.1111H76.0293V59.5Z" fill="white"/>
<path id="Vector_18" d="M89.25 59.5H95.8611V66.1111H89.25V59.5Z" fill="white"/>
<path id="Vector_19" d="M76.0293 76.0276H82.6404V82.6387H76.0293V76.0276Z" fill="white"/>
<path id="Vector_20" d="M89.25 76.0276H95.8611V82.6387H89.25V76.0276Z" fill="white"/>
</g>
</g>
</svg>
