
<svg width="46" height="47" viewBox="0 0 46 47" fill="none" xmlns="http://www.w3.org/2000/svg">
<g id="Frame 18">
<g clip-path="url(#clip0_11216_413353)">
<rect id="Rectangle 52" opacity="0.2" x="-6.07617" y="-5.22217" width="52.0755" height="52.2222" rx="26.0377" fill="white"/>
<g id="Group 31">
<path id="Vector" d="M29.3891 13.7778H23.6113V15.2223H29.3891V30.3889H23.6113V31.8334H30.8336V15.2223C30.8336 14.8392 30.6814 14.4718 30.4105 14.2009C30.1396 13.93 29.7722 13.7778 29.3891 13.7778Z" fill="white"/>
<path id="Vector_2" d="M21.3576 10.1667H11.4198C11.0137 10.1667 10.6243 10.3281 10.3371 10.6152C10.05 10.9023 9.88867 11.2918 9.88867 11.6979V31.8334H22.8887V11.6979C22.8887 11.2918 22.7274 10.9023 22.4402 10.6152C22.1531 10.3281 21.7636 10.1667 21.3576 10.1667ZM21.4442 30.389H19.2776V28.2223H13.4998V30.389H11.3331V11.6979C11.3331 11.6865 11.3354 11.6752 11.3397 11.6647C11.3441 11.6542 11.3505 11.6446 11.3585 11.6366C11.3665 11.6285 11.3761 11.6221 11.3866 11.6178C11.3971 11.6134 11.4084 11.6112 11.4198 11.6112H21.3576C21.3689 11.6112 21.3802 11.6134 21.3907 11.6178C21.4012 11.6221 21.4108 11.6285 21.4188 11.6366C21.4269 11.6446 21.4333 11.6542 21.4376 11.6647C21.442 11.6752 21.4442 11.6865 21.4442 11.6979V30.389Z" fill="white"/>
<path id="Vector_3" d="M12.7773 13.7778H14.2218V15.2223H12.7773V13.7778Z" fill="white"/>
<path id="Vector_4" d="M15.666 13.7778H17.1105V15.2223H15.666V13.7778Z" fill="white"/>
<path id="Vector_5" d="M18.5547 13.7778H19.9991V15.2223H18.5547V13.7778Z" fill="white"/>
<path id="Vector_6" d="M12.7773 17.3889H14.2218V18.8334H12.7773V17.3889Z" fill="white"/>
<path id="Vector_7" d="M15.666 17.3889H17.1105V18.8334H15.666V17.3889Z" fill="white"/>
<path id="Vector_8" d="M18.5547 17.3889H19.9991V18.8334H18.5547V17.3889Z" fill="white"/>
<path id="Vector_9" d="M12.7773 21H14.2218V22.4444H12.7773V21Z" fill="white"/>
<path id="Vector_10" d="M15.666 21H17.1105V22.4444H15.666V21Z" fill="white"/>
<path id="Vector_11" d="M18.5547 21H19.9991V22.4444H18.5547V21Z" fill="white"/>
<path id="Vector_12" d="M12.7773 24.6111H14.2218V26.0555H12.7773V24.6111Z" fill="white"/>
<path id="Vector_13" d="M15.666 24.6111H17.1105V26.0555H15.666V24.6111Z" fill="white"/>
<path id="Vector_14" d="M18.5547 24.6111H19.9991V26.0555H18.5547V24.6111Z" fill="white"/>
<path id="Vector_15" d="M23.6113 17.3889H25.0558V18.8334H23.6113V17.3889Z" fill="white"/>
<path id="Vector_16" d="M26.5 17.3889H27.9444V18.8334H26.5V17.3889Z" fill="white"/>
<path id="Vector_17" d="M23.6113 21H25.0558V22.4444H23.6113V21Z" fill="white"/>
<path id="Vector_18" d="M26.5 21H27.9444V22.4444H26.5V21Z" fill="white"/>
<path id="Vector_19" d="M23.6113 24.6111H25.0558V26.0555H23.6113V24.6111Z" fill="white"/>
<path id="Vector_20" d="M26.5 24.6111H27.9444V26.0555H26.5V24.6111Z" fill="white"/>
</g>
</g>
</g>
<defs>
<clipPath id="clip0_11216_413353">
<path d="M0 15C0 6.71573 6.71573 0 15 0H46V47H0V15Z" fill="white"/>
</clipPath>
</defs>
</svg>
