<svg width="20" height="27" viewBox="0 0 20 27" fill="none" xmlns="http://www.w3.org/2000/svg">
<g id="Group 9">
<path id="Rectangle 24" d="M3.75 10H14.25C14.3881 10 14.5 10.1119 14.5 10.25C14.5 10.3881 14.3881 10.5 14.25 10.5H3.75C3.61193 10.5 3.5 10.3881 3.5 10.25C3.5 10.1119 3.61193 10 3.75 10Z" stroke="white"/>
<path id="Rectangle 25" d="M3.75 14H10.25C10.3881 14 10.5 14.1119 10.5 14.25C10.5 14.3881 10.3881 14.5 10.25 14.5H3.75C3.61193 14.5 3.5 14.3881 3.5 14.25C3.5 14.1119 3.61193 14 3.75 14Z" stroke="white"/>
<path id="Subtract" fill-rule="evenodd" clip-rule="evenodd" d="M8.5 0C7.67157 0 7 0.671573 7 1.5V2H5C4.17157 2 3.5 2.67157 3.5 3.5V4.5H1C0.447715 4.5 0 4.94772 0 5.5V25.5C0 26.0523 0.447716 26.5 1 26.5H19C19.5523 26.5 20 26.0523 20 25.5V5.5C20 4.94772 19.5523 4.5 19 4.5H16.5V3.5C16.5 2.67157 15.8284 2 15 2H13V1.5C13 0.671573 12.3284 0 11.5 0H8.5ZM1.5 25V6H18.5V25H1.5ZM5 4.5H15V3.5H11.5V2V1.5C11.5 1.22386 11.2761 1 11 1H9C8.72386 1 8.5 1.22386 8.5 1.5V2V3.5H5V4.5Z" fill="white"/>
</g>
</svg>