
<svg width="64" height="75" viewBox="0 0 64 75" fill="none" xmlns="http://www.w3.org/2000/svg">
<g id="Frame 26">
<g clip-path="url(#clip0_11216_413397)">
<g id="Group 30" opacity="0.2">
<path id="Rectangle 24" d="M14.6242 39H55.5742C56.1127 39 56.5492 39.4366 56.5492 39.975C56.5492 40.5135 56.1127 40.95 55.5742 40.95H14.6242C14.0857 40.95 13.6492 40.5135 13.6492 39.975C13.6492 39.4366 14.0857 39 14.6242 39Z" stroke="white" stroke-width="3.9"/>
<path id="Rectangle 25" d="M14.6242 54.5999H39.9742C40.5127 54.5999 40.9492 55.0364 40.9492 55.5749C40.9492 56.1134 40.5127 56.5499 39.9742 56.5499H14.6242C14.0857 56.5499 13.6492 56.1134 13.6492 55.5749C13.6492 55.0364 14.0857 54.5999 14.6242 54.5999Z" stroke="white" stroke-width="3.9"/>
<path id="Subtract" fill-rule="evenodd" clip-rule="evenodd" d="M33.15 0C29.9191 0 27.3 2.61913 27.3 5.85V7.8H19.5C16.2691 7.8 13.65 10.4191 13.65 13.65V17.55H3.9C1.74609 17.55 0 19.2961 0 21.45V99.45C0 101.604 1.74609 103.35 3.9 103.35H74.1C76.2539 103.35 78 101.604 78 99.45V21.45C78 19.2961 76.2539 17.55 74.1 17.55H64.35V13.65C64.35 10.4191 61.7309 7.8 58.5 7.8H50.7V5.85C50.7 2.61913 48.0809 0 44.85 0H33.15ZM5.85 97.5V23.4H72.15V97.5H5.85ZM19.5 17.55H58.5V13.65H44.8504V5.8501H44.85V5.85C44.85 4.77304 43.977 3.9 42.9 3.9H35.1C34.023 3.9 33.15 4.77304 33.15 5.85V7.8H33.1504V13.65H19.5V17.55Z" fill="white"/>
</g>
</g>
</g>
<defs>
<clipPath id="clip0_11216_413397">
<rect width="64" height="75" fill="white"/>
</clipPath>
</defs>
</svg>
