<svg width="104" height="104" viewBox="0 0 104 104" fill="none" xmlns="http://www.w3.org/2000/svg">
<rect width="104" height="104" rx="52" fill="url(#paint0_linear_11195_412313)"/>
<rect opacity="0.2" x="22" y="60" width="42" height="42" rx="21" fill="white"/>
<path d="M39.8457 43.8662H35.667V42.1797H39.8457C40.6549 42.1797 41.3102 42.0508 41.8115 41.793C42.3128 41.5352 42.6781 41.1771 42.9072 40.7188C43.1436 40.2604 43.2617 39.7376 43.2617 39.1504C43.2617 38.6133 43.1436 38.1084 42.9072 37.6357C42.6781 37.1631 42.3128 36.7835 41.8115 36.4971C41.3102 36.2035 40.6549 36.0566 39.8457 36.0566H36.1504V50H34.0771V34.3594H39.8457C41.0273 34.3594 42.0264 34.5635 42.8428 34.9717C43.6592 35.3799 44.2786 35.9456 44.7012 36.6689C45.1237 37.3851 45.335 38.2051 45.335 39.1289C45.335 40.1315 45.1237 40.9873 44.7012 41.6963C44.2786 42.4053 43.6592 42.946 42.8428 43.3184C42.0264 43.6836 41.0273 43.8662 39.8457 43.8662ZM52.1885 50H48.9229L48.9443 48.3135H52.1885C53.3057 48.3135 54.2367 48.0807 54.9814 47.6152C55.7262 47.1426 56.2848 46.4837 56.6572 45.6387C57.0368 44.7865 57.2266 43.791 57.2266 42.6523V41.6963C57.2266 40.8011 57.1191 40.0062 56.9043 39.3115C56.6895 38.6097 56.3743 38.0189 55.959 37.5391C55.5436 37.0521 55.0352 36.6833 54.4336 36.4326C53.8392 36.182 53.1553 36.0566 52.3818 36.0566H48.8584V34.3594H52.3818C53.4059 34.3594 54.3405 34.5312 55.1855 34.875C56.0306 35.2116 56.7575 35.7021 57.3662 36.3467C57.9821 36.984 58.4548 37.7575 58.7842 38.667C59.1136 39.5693 59.2783 40.5863 59.2783 41.7178V42.6523C59.2783 43.7839 59.1136 44.8044 58.7842 45.7139C58.4548 46.6162 57.9785 47.3861 57.3555 48.0234C56.7396 48.6608 55.9948 49.1514 55.1211 49.4951C54.2546 49.8317 53.277 50 52.1885 50ZM50.0293 34.3594V50H47.9561V34.3594H50.0293ZM64.4668 34.3594V50H62.3936V34.3594H64.4668ZM71.0195 41.3955V43.0928H64.0156V41.3955H71.0195ZM72.083 34.3594V36.0566H64.0156V34.3594H72.083Z" fill="white"/>
<path d="M49.75 78H51.875C52.4386 78 52.9791 78.2195 53.3776 78.6102C53.7761 79.0009 54 79.5308 54 80.0833V90.9167C54 91.4692 53.7761 91.9991 53.3776 92.3898C52.9791 92.7805 52.4386 93 51.875 93H39.125C38.5614 93 38.0209 92.7805 37.6224 92.3898C37.2239 91.9991 37 91.4692 37 90.9167V80.0833C37 79.5308 37.2239 79.0009 37.6224 78.6102C38.0209 78.2195 38.5614 78 39.125 78H41.25" stroke="white" stroke-width="2" stroke-linecap="round" stroke-linejoin="round"/>
<path d="M42 83.0526L45.5 87L49 83.0526M45.5 72V86.2105" stroke="white" stroke-width="2" stroke-linecap="round" stroke-linejoin="round"/>
<defs>
<linearGradient id="paint0_linear_11195_412313" x1="14.5" y1="-4.5" x2="115" y2="117" gradientUnits="userSpaceOnUse">
<stop stop-color="#FF7807"/>
<stop offset="1" stop-color="#FF0463"/>
</linearGradient>
</defs>
</svg>