
<svg width="104" height="104" viewBox="0 0 104 104" fill="none" xmlns="http://www.w3.org/2000/svg">
<rect width="104" height="104" rx="52" fill="url(#paint0_radial_11195_412488)"/>
<rect opacity="0.2" x="22" y="60" width="42" height="42" rx="21" fill="white"/>
<path d="M29.4043 34.3594L33.1641 40.3535L36.9238 34.3594H39.3408L34.3994 42.1045L39.459 50H37.0205L33.1641 43.8877L29.3076 50H26.8691L31.9287 42.1045L26.9873 34.3594H29.4043ZM51.3398 48.3135V50H43.5195V48.3135H51.3398ZM43.9277 34.3594V50H41.8545V34.3594H43.9277ZM62.0498 46.0469C62.0498 45.6816 61.9925 45.3594 61.8779 45.0801C61.7705 44.7936 61.5771 44.5358 61.2979 44.3066C61.0257 44.0775 60.6462 43.859 60.1592 43.6514C59.6794 43.4437 59.0706 43.2324 58.333 43.0176C57.5596 42.7884 56.8613 42.5342 56.2383 42.2549C55.6152 41.9684 55.0817 41.6426 54.6377 41.2773C54.1937 40.9121 53.8535 40.4932 53.6172 40.0205C53.3809 39.5479 53.2627 39.0072 53.2627 38.3984C53.2627 37.7897 53.388 37.2275 53.6387 36.7119C53.8893 36.1963 54.2474 35.7487 54.7129 35.3691C55.1855 34.9824 55.7477 34.6816 56.3994 34.4668C57.0511 34.252 57.778 34.1445 58.5801 34.1445C59.7546 34.1445 60.75 34.3701 61.5664 34.8213C62.39 35.2653 63.0166 35.849 63.4463 36.5723C63.876 37.2884 64.0908 38.0547 64.0908 38.8711H62.0283C62.0283 38.2839 61.903 37.7646 61.6523 37.3135C61.4017 36.8551 61.0221 36.4971 60.5137 36.2393C60.0052 35.9743 59.3607 35.8418 58.5801 35.8418C57.8424 35.8418 57.2337 35.9528 56.7539 36.1748C56.2741 36.3968 55.916 36.6976 55.6797 37.0771C55.4505 37.4567 55.3359 37.89 55.3359 38.377C55.3359 38.7064 55.404 39.0072 55.54 39.2793C55.6833 39.5443 55.9017 39.7913 56.1953 40.0205C56.4961 40.2497 56.8757 40.4609 57.334 40.6543C57.7995 40.8477 58.3545 41.0339 58.999 41.2129C59.887 41.4635 60.6533 41.7428 61.2979 42.0508C61.9424 42.3587 62.4723 42.7061 62.8877 43.0928C63.3102 43.4723 63.6217 43.9056 63.8223 44.3926C64.0299 44.8724 64.1338 45.4167 64.1338 46.0254C64.1338 46.6628 64.0049 47.2393 63.7471 47.7549C63.4893 48.2705 63.1204 48.7109 62.6406 49.0762C62.1608 49.4414 61.5843 49.7243 60.9111 49.9248C60.2451 50.1182 59.5003 50.2148 58.6768 50.2148C57.9535 50.2148 57.2409 50.1146 56.5391 49.9141C55.8444 49.7135 55.2106 49.4128 54.6377 49.0117C54.0719 48.6107 53.6172 48.1165 53.2734 47.5293C52.9368 46.9349 52.7686 46.2474 52.7686 45.4668H54.8311C54.8311 46.0039 54.9349 46.4658 55.1426 46.8525C55.3503 47.2321 55.6331 47.5472 55.9912 47.7979C56.3564 48.0485 56.7682 48.2347 57.2266 48.3564C57.6921 48.471 58.1755 48.5283 58.6768 48.5283C59.4001 48.5283 60.0124 48.4281 60.5137 48.2275C61.015 48.027 61.3945 47.7406 61.6523 47.3682C61.9173 46.9958 62.0498 46.5553 62.0498 46.0469ZM68.1191 34.3594L71.8789 40.3535L75.6387 34.3594H78.0557L73.1143 42.1045L78.1738 50H75.7354L71.8789 43.8877L68.0225 50H65.584L70.6436 42.1045L65.7021 34.3594H68.1191Z" fill="white"/>
<path d="M49.75 78H51.875C52.4386 78 52.9791 78.2195 53.3776 78.6102C53.7761 79.0009 54 79.5308 54 80.0833V90.9167C54 91.4692 53.7761 91.9991 53.3776 92.3898C52.9791 92.7805 52.4386 93 51.875 93H39.125C38.5614 93 38.0209 92.7805 37.6224 92.3898C37.2239 91.9991 37 91.4692 37 90.9167V80.0833C37 79.5308 37.2239 79.0009 37.6224 78.6102C38.0209 78.2195 38.5614 78 39.125 78H41.25" stroke="white" stroke-width="2" stroke-linecap="round" stroke-linejoin="round"/>
<path d="M42 83.0526L45.5 87L49 83.0526M45.5 72V86.2105" stroke="white" stroke-width="2" stroke-linecap="round" stroke-linejoin="round"/>
<defs>
<radialGradient id="paint0_radial_11195_412488" cx="0" cy="0" r="1" gradientUnits="userSpaceOnUse" gradientTransform="translate(52 73) rotate(-90) scale(73)">
<stop stop-color="#7ED547"/>
<stop offset="1" stop-color="#0CC514"/>
</radialGradient>
</defs>
</svg>
