
<svg width="24" height="25" viewBox="0 0 24 25" fill="none" xmlns="http://www.w3.org/2000/svg">
<mask id="path-1-inside-1_11196_211540" fill="white">
<rect y="3" width="24" height="22" rx="1"/>
</mask>
<rect y="3" width="24" height="22" rx="1" stroke="white" stroke-width="3" mask="url(#path-1-inside-1_11196_211540)"/>
<mask id="path-2-inside-2_11196_211540" fill="white">
<rect x="4" y="10" width="7" height="7" rx="1"/>
</mask>
<rect x="4" y="10" width="7" height="7" rx="1" stroke="white" stroke-width="3" mask="url(#path-2-inside-2_11196_211540)"/>
<mask id="path-3-inside-3_11196_211540" fill="white">
<path d="M4 0.75C4 0.335786 4.33579 0 4.75 0C5.16421 0 5.5 0.335786 5.5 0.75V3.25C5.5 3.66421 5.16421 4 4.75 4C4.33579 4 4 3.66421 4 3.25V0.75Z"/>
</mask>
<path d="M4 0.75V3.25H7V0.75H4ZM5.5 3.25V0.75H2.5V3.25H5.5ZM4.75 2.5C5.16421 2.5 5.5 2.83579 5.5 3.25H2.5C2.5 4.49264 3.50736 5.5 4.75 5.5V2.5ZM4 3.25C4 2.83579 4.33579 2.5 4.75 2.5V5.5C5.99264 5.5 7 4.49264 7 3.25H4ZM4.75 1.5C4.33579 1.5 4 1.16421 4 0.75H7C7 -0.492641 5.99264 -1.5 4.75 -1.5V1.5ZM4.75 -1.5C3.50736 -1.5 2.5 -0.492641 2.5 0.75H5.5C5.5 1.16421 5.16421 1.5 4.75 1.5V-1.5Z" fill="white" mask="url(#path-3-inside-3_11196_211540)"/>
<mask id="path-5-inside-4_11196_211540" fill="white">
<path d="M17.5 0.75C17.5 0.335786 17.8358 0 18.25 0C18.6642 0 19 0.335786 19 0.75V3.25C19 3.66421 18.6642 4 18.25 4C17.8358 4 17.5 3.66421 17.5 3.25V0.75Z"/>
</mask>
<path d="M17.5 0.75V3.25H20.5V0.75H17.5ZM19 3.25V0.75H16V3.25H19ZM18.25 2.5C18.6642 2.5 19 2.83579 19 3.25H16C16 4.49264 17.0074 5.5 18.25 5.5V2.5ZM17.5 3.25C17.5 2.83579 17.8358 2.5 18.25 2.5V5.5C19.4926 5.5 20.5 4.49264 20.5 3.25H17.5ZM18.25 1.5C17.8358 1.5 17.5 1.16421 17.5 0.75H20.5C20.5 -0.492641 19.4926 -1.5 18.25 -1.5V1.5ZM18.25 -1.5C17.0074 -1.5 16 -0.492641 16 0.75H19C19 1.16421 18.6642 1.5 18.25 1.5V-1.5Z" fill="white" mask="url(#path-5-inside-4_11196_211540)"/>
<mask id="path-7-inside-5_11196_211540" fill="white">
<path d="M0 6.75C0 6.33579 0.335786 6 0.75 6H23.25C23.6642 6 24 6.33579 24 6.75C24 7.16421 23.6642 7.5 23.25 7.5H0.75C0.335786 7.5 0 7.16421 0 6.75Z"/>
</mask>
<path d="M0.75 7.5H23.25V4.5H0.75V7.5ZM23.25 6H0.75V9H23.25V6ZM0.75 6C1.16421 6 1.5 6.33579 1.5 6.75H-1.5C-1.5 7.99264 -0.492641 9 0.75 9V6ZM22.5 6.75C22.5 6.33579 22.8358 6 23.25 6V9C24.4926 9 25.5 7.99264 25.5 6.75H22.5ZM23.25 7.5C22.8358 7.5 22.5 7.16421 22.5 6.75H25.5C25.5 5.50736 24.4926 4.5 23.25 4.5V7.5ZM0.75 4.5C-0.492641 4.5 -1.5 5.50736 -1.5 6.75H1.5C1.5 7.16421 1.16421 7.5 0.75 7.5V4.5Z" fill="white" mask="url(#path-7-inside-5_11196_211540)"/>
</svg>
