
<svg width="27" height="26" viewBox="0 0 27 26" fill="none" xmlns="http://www.w3.org/2000/svg">
<g id="Group">
<path id="Vector" d="M13.5 25C20.1274 25 25.5 19.6274 25.5 13C25.5 6.37258 20.1274 1 13.5 1C6.87258 1 1.5 6.37258 1.5 13C1.5 19.6274 6.87258 25 13.5 25Z" stroke="#FAED00" stroke-width="1.5"/>
<path id="Vector_2" d="M15.8151 20.0431C15.4287 21.1591 13.8507 21.1579 13.4655 20.0419L11.5215 14.4091L6.03752 12.0775C4.95152 11.6155 5.06072 10.0399 6.20072 9.73274L18.4791 6.41954C18.6974 6.36054 18.9276 6.36218 19.145 6.42429C19.3624 6.48639 19.5588 6.60662 19.7129 6.77201C19.8671 6.93741 19.9732 7.14172 20.0199 7.36295C20.0666 7.58418 20.0521 7.81395 19.9779 8.02754L15.8151 20.0431Z" stroke="#FAED00" stroke-width="1.5"/>
</g>
</svg>
